<svg viewBox="0 0 1040 320" xmlns="http://www.w3.org/2000/svg" font-family="'Segoe UI',Roboto,Helvetica,Arial,sans-serif">
  <defs>
    <marker id="a2" markerWidth="10" markerHeight="10" refX="8" refY="3" orient="auto" markerUnits="strokeWidth">
      <path d="M0,0 L8,3 L0,6 Z" fill="#90a4ae"/>
    </marker>
  </defs>
  <rect x="0" y="0" width="1040" height="320" rx="16" fill="#fbfcfe" stroke="#e3e8ee"/>
  <text x="32" y="44" font-size="20" font-weight="700" fill="#1b5e20">Unsupervised Astrocyte Signature Learning</text>
  <text x="32" y="68" font-size="13" fill="#5b6b7b">No labels in → emergent morphotypes out</text>

  <g>
    <rect x="32" y="105" width="160" height="80" rx="12" fill="#ffffff" stroke="#cfd8e3"/>
    <text x="112" y="135" text-anchor="middle" font-size="14" font-weight="600" fill="#16324f">Cell crops</text>
    <text x="112" y="156" text-anchor="middle" font-size="11" fill="#6b7b8c">4,664 segmented</text>

    <rect x="222" y="95" width="180" height="100" rx="12" fill="#eef4ff" stroke="#9db8e8"/>
    <text x="312" y="128" text-anchor="middle" font-size="14" font-weight="700" fill="#1e497d">Morphometric</text>
    <text x="312" y="147" text-anchor="middle" font-size="14" font-weight="700" fill="#1e497d">features</text>
    <text x="312" y="166" text-anchor="middle" font-size="11" fill="#5774a0">area · branches · length</text>

    <rect x="432" y="105" width="150" height="80" rx="12" fill="#f5eefb" stroke="#c59bdf"/>
    <text x="507" y="139" text-anchor="middle" font-size="14" font-weight="700" fill="#6a1b9a">UMAP</text>
    <text x="507" y="159" text-anchor="middle" font-size="11" fill="#7e57a8">embed manifold</text>

    <rect x="612" y="105" width="160" height="80" rx="12" fill="#fff4e6" stroke="#e0b07a"/>
    <text x="692" y="139" text-anchor="middle" font-size="14" font-weight="700" fill="#9a5b14">Clustering</text>
    <text x="692" y="159" text-anchor="middle" font-size="11" fill="#b07a3c">label-free grouping</text>
  </g>

  <!-- outputs -->
  <g>
    <rect x="822" y="60" width="186" height="56" rx="10" fill="#e7f7f0" stroke="#7bccab"/>
    <text x="915" y="84" text-anchor="middle" font-size="13" font-weight="700" fill="#11694a">Stellate</text>
    <text x="915" y="102" text-anchor="middle" font-size="11" fill="#3c8a6c">1,938</text>

    <rect x="822" y="125" width="186" height="56" rx="10" fill="#e7f7f0" stroke="#7bccab"/>
    <text x="915" y="149" text-anchor="middle" font-size="13" font-weight="700" fill="#11694a">Bipolar simple</text>
    <text x="915" y="167" text-anchor="middle" font-size="11" fill="#3c8a6c">1,798</text>

    <rect x="822" y="190" width="186" height="56" rx="10" fill="#e7f7f0" stroke="#7bccab"/>
    <text x="915" y="214" text-anchor="middle" font-size="13" font-weight="700" fill="#11694a">Bushy / complex</text>
    <text x="915" y="232" text-anchor="middle" font-size="11" fill="#3c8a6c">882</text>
  </g>

  <g stroke="#90a4ae" stroke-width="2" fill="none">
    <line x1="192" y1="145" x2="216" y2="145" marker-end="url(#a2)"/>
    <line x1="402" y1="145" x2="426" y2="145" marker-end="url(#a2)"/>
    <line x1="582" y1="145" x2="606" y2="145" marker-end="url(#a2)"/>
    <path d="M772,135 L797,135 L797,88 L818,88" marker-end="url(#a2)"/>
    <path d="M772,145 L818,153" marker-end="url(#a2)"/>
    <path d="M772,155 L797,155 L797,218 L818,218" marker-end="url(#a2)"/>
  </g>
</svg>
